<!-- icon666.com - MILLIONS vector ICONS FREE --><svg viewBox="0 -62 512 512" xmlns="http://www.w3.org/2000/svg"><path d="m499.605469 82.761719-89.019531 67.640625v-35.71875h-74.65625l-221.824219 221.824218h-106.605469v-63.847656h80.160156l221.824219-221.824218h101.101563v-35.71875zm0 0" fill="#96d1f3" style="fill: rgb(255, 255, 255);"></path><path d="m166.648438 193.671875 45.148437-45.144531-97.691406-97.691406h-106.605469v63.847656h80.160156zm0 0" fill="#96d1f3" style="fill: rgb(255, 255, 255);"></path><path d="m410.585938 272.660156h-74.65625l-78.988282-78.988281-45.144531 45.148437 97.6875 97.6875h101.101563v35.71875l89.019531-67.640624-89.019531-67.644532zm0 0" fill="#96d1f3" style="fill: rgb(255, 255, 255);"></path><g fill="#3ca6e6"><path d="m339.484375 50.835938h-30l-221.824219 221.824218h29.996094zm0 0" fill="#3ca6e6" style="fill: rgb(255, 255, 255);"></path><path d="m7.5 272.660156h30v63.847656h-30zm0 0" fill="#3ca6e6" style="fill: rgb(255, 255, 255);"></path><path d="m7.5 50.835938h30v63.847656h-30zm0 0" fill="#3ca6e6" style="fill: rgb(255, 255, 255);"></path><path d="m117.65625 114.683594h-29.996094l78.988282 78.988281 15-15zm0 0" fill="#3ca6e6" style="fill: rgb(255, 255, 255);"></path><path d="m271.941406 208.671875-15-15-45.144531 45.148437 97.6875 97.6875h30l-97.691406-97.6875zm0 0" fill="#3ca6e6" style="fill: rgb(255, 255, 255);"></path></g><path d="m117.210938 344.007812h-117.210938v-78.847656h84.554688l221.824218-221.824218h96.710938v-43.335938l108.910156 82.761719-108.910156 82.757812v-43.335937h-64.054688zm-102.210938-15h96l221.824219-221.824218h85.265625v28.101562l69.121094-52.523437-69.121094-52.523438v28.097657h-105.5l-221.824219 221.824218h-75.765625zm0 0" fill="#000000" style="fill: rgb(255, 255, 255);"></path><path d="m141.898438 179.53125-57.34375-57.347656h-84.554688v-78.847656h117.210938l80.441406 80.441406-10.605469 10.605468-76.046875-76.046874h-96v48.847656h75.765625l61.738281 61.742187zm0 0" fill="#000000" style="fill: rgb(255, 255, 255);"></path><path d="m403.089844 387.347656v-43.339844h-96.710938l-80.441406-80.441406 10.605469-10.605468 76.046875 76.046874h105.496094v28.101563l69.125-52.523437-69.125-52.527344v28.101562h-85.261719l-61.742188-61.742187 10.609375-10.605469 57.34375 57.347656h64.054688v-43.335937l108.910156 82.761719zm0 0" fill="#000000" style="fill: rgb(255, 255, 255);"></path><path d="m404.695312 90.261719h-15v-15h15zm-25 0h-15v-15h15zm0 0" fill="#fff" style="fill: rgb(255, 255, 255);"></path></svg>